<?xml version="1.0" standalone="no"?>
<!DOCTYPE svg PUBLIC "-//W3C//DTD SVG 20010904//EN"
 "http://www.w3.org/TR/2001/REC-SVG-20010904/DTD/svg10.dtd">
<svg version="1.0" xmlns="http://www.w3.org/2000/svg"
 width="1080.000000pt" height="1080.000000pt" viewBox="0 0 1080.000000 1080.000000"
 preserveAspectRatio="xMidYMid meet">

<g transform="translate(0.000000,1080.000000) scale(0.100000,-0.100000)"
fill="#000000" stroke="none">
<path d="M3972 6750 c-64 -15 -110 -87 -95 -149 3 -14 70 -197 149 -406 274
-725 287 -756 317 -779 27 -20 41 -21 242 -21 201 0 215 1 242 21 22 16 43 59
100 210 l71 188 12 -44 c47 -175 193 -315 381 -366 96 -26 262 -24 364 5 88
24 186 75 228 117 49 49 55 126 14 185 -14 20 -14 23 11 44 l27 23 17 -74 c23
-99 50 -148 114 -210 130 -127 368 -147 584 -48 70 32 98 59 106 101 l6 34 63
-6 c77 -9 161 7 237 45 l57 28 22 -24 c39 -42 77 -45 452 -40 193 3 359 5 367
6 8 0 56 -2 105 -6 109 -7 164 5 198 46 l25 29 28 -30 c39 -41 91 -53 204 -45
112 8 101 8 215 0 108 -7 163 5 201 45 l27 29 39 -24 c43 -27 172 -64 224 -64
52 0 134 20 190 46 79 37 138 95 179 176 36 73 44 124 25 173 -7 19 -7 39 1
65 17 56 3 119 -40 191 -66 111 -181 181 -319 195 -71 8 -201 -22 -259 -59
l-40 -25 -27 29 c-38 40 -93 52 -201 45 -116 -8 -105 -8 -210 0 -107 8 -163
-5 -200 -44 l-27 -28 -32 32 c-38 38 -106 51 -219 40 -40 -4 -85 -6 -102 -5
-16 2 -76 3 -132 4 -87 0 -106 -3 -130 -21 -55 -40 -63 -73 -63 -246 l0 -158
-55 0 -55 0 0 158 c0 130 -3 163 -18 191 -29 59 -61 74 -159 79 -102 5 -160
-8 -192 -42 l-22 -24 -57 29 c-32 15 -90 34 -129 41 -61 10 -83 9 -148 -5
l-77 -17 -27 29 c-31 33 -85 51 -152 51 l-46 0 -5 89 c-4 60 -11 98 -24 120
-20 35 -68 61 -111 61 -38 0 -342 -106 -366 -128 -26 -22 -47 -73 -47 -111 0
-27 -5 -31 -39 -41 -43 -11 -91 -60 -91 -91 0 -19 -2 -19 -33 5 -73 56 -228
106 -328 106 -71 0 -192 -30 -260 -64 l-66 -33 40 101 c56 146 51 206 -20 253
-22 15 -55 19 -181 22 -84 2 -178 0 -208 -4 -92 -11 -101 -24 -185 -270 l-73
-215 -23 62 c-12 35 -45 131 -73 214 -55 164 -72 190 -137 205 -46 10 -335 10
-381 -1z m363 -137 c3 -10 61 -175 127 -368 66 -192 121 -351 122 -353 2 -1
47 127 101 285 54 159 111 325 127 371 l30 82 165 0 c128 0 164 -3 161 -12 -3
-7 -96 -257 -209 -555 l-204 -543 -170 0 -170 0 -204 543 c-112 298 -206 548
-209 555 -3 9 33 12 161 12 148 0 166 -2 172 -17z m2235 -273 c66 0 120 -4
120 -8 0 -5 -10 -17 -22 -28 -37 -33 -96 -133 -103 -174 l-7 -40 -55 0 -55 0
4 -140 c4 -168 8 -176 93 -173 51 2 55 0 75 -32 11 -18 36 -47 55 -63 18 -17
41 -45 50 -63 16 -31 16 -33 -1 -46 -74 -54 -262 -79 -365 -49 -71 20 -131 72
-166 144 -27 54 -28 65 -33 237 l-5 180 -67 3 -68 3 0 124 0 125 70 0 69 0 3
92 3 91 140 47 140 47 3 -139 3 -138 119 0z m-850 -26 c82 -39 151 -109 193
-194 28 -57 32 -74 32 -150 0 -47 -3 -93 -7 -102 -7 -17 -29 -18 -263 -18
-277 0 -277 0 -234 -54 53 -67 162 -80 264 -31 33 16 62 30 66 32 6 4 129
-163 129 -175 0 -11 -97 -68 -150 -88 -61 -22 -236 -30 -309 -14 -220 48 -359
256 -322 481 14 87 48 156 109 221 91 97 174 129 327 125 88 -2 108 -6 165
-33z m1350 -39 c63 -22 123 -76 156 -139 16 -30 26 -57 23 -61 -4 -3 -37 -15
-75 -26 -65 -18 -70 -18 -79 -2 -43 74 -114 106 -178 79 -104 -43 -104 -219 0
-262 64 -27 132 3 178 78 9 15 16 15 80 -5 39 -11 72 -22 74 -24 12 -9 -49
-110 -87 -144 -59 -51 -125 -72 -215 -67 -117 6 -195 57 -248 161 -26 51 -36
155 -20 214 24 87 102 171 186 201 45 16 157 14 205 -3z m2360 0 c63 -22 123
-76 156 -139 16 -30 26 -57 23 -61 -4 -3 -37 -15 -75 -26 -65 -18 -70 -18 -79
-2 -43 74 -114 106 -178 79 -104 -43 -104 -219 0 -262 64 -27 132 3 178 78 9
15 16 15 80 -5 39 -11 72 -22 74 -24 12 -9 -49 -110 -87 -144 -59 -51 -125
-72 -215 -67 -117 6 -195 57 -248 161 -26 51 -36 155 -20 214 24 87 102 171
186 201 45 16 157 14 205 -3z m-1950 -210 l0 -215 145 0 145 0 0 -70 0 -70
-220 0 -220 0 0 285 0 285 75 0 75 0 0 -215z m530 -70 l0 -285 -80 0 -80 0 0
285 0 285 80 0 80 0 0 -285z m382 124 l113 -160 3 160 2 161 80 0 80 0 0 -285
0 -286 -82 3 -82 3 -116 158 -115 158 -3 -161 -2 -160 -75 0 -75 0 0 285 0
285 79 0 80 0 113 -161z m558 -124 l0 -285 -80 0 -80 0 0 285 0 285 80 0 80 0
0 -285z m-1975 6 c3 -5 1 -12 -5 -16 -5 -3 -10 1 -10 9 0 18 6 21 15 7z m2360
0 c3 -5 1 -12 -5 -16 -5 -3 -10 1 -10 9 0 18 6 21 15 7z"/>
<path d="M5496 6120 c-37 -12 -72 -45 -85 -81 l-10 -29 135 0 c73 0 134 2 134
5 0 21 -32 76 -52 88 -31 20 -86 28 -122 17z"/>
</g>
</svg>
